<svg xmlns="http://www.w3.org/2000/svg" xmlns:xlink="http://www.w3.org/1999/xlink" fill="none" version="1.1" width="16" height="16" viewBox="0 0 16 16"><defs><clipPath id="master_svg0_2_5154"><rect x="0" y="0" width="16" height="16" rx="0"/></clipPath></defs><g clip-path="url(#master_svg0_2_5154)"><path d="M13.86640625,9.0703125L11.73307325,9.0703125C10.84941765,9.0703125,10.13307285,9.78665733,10.13307285,10.6703129L10.13307285,13.070313500000001C10.13307095,13.953969,10.84941675,14.6703148,11.73307325,14.670313799999999L13.86640625,14.670313799999999C14.45551025,14.670312899999999,14.93307325,14.1927509,14.93307325,13.603647200000001L14.93307325,10.1369791C14.93307325,9.5478754,14.45551025,9.07031154632568,13.86640625,9.0703125ZM11.73307325,10.1369791L13.86640625,10.1369791L13.86640625,13.603646300000001L11.73307325,13.603646300000001C11.43852125,13.603647200000001,11.19974025,13.3648653,11.19974025,13.070313500000001L11.19974025,10.6703138C11.19974025,10.375762,11.43852125,10.136981,11.73307325,10.1369791ZM4.26640655,9.0703125L2.13307325,9.0703125C1.54396951,9.07031154632568,1.06640648841858,9.5478754,1.06640660762787,10.1369791L1.06640660762787,13.603646300000001C1.06640648841858,14.19275,1.54396939,14.670312899999999,2.13307325,14.670312899999999L4.26640655,14.670312899999999C5.15006205,14.670312899999999,5.86640645,13.953968,5.86640645,13.0703125L5.86640645,10.6703119C5.86640645,9.78665638,5.15006205,9.07031154632568,4.26640655,9.0703125ZM2.13307325,10.1369791L4.26640655,10.1369791C4.56095835,10.1369801,4.79973985,10.375761,4.79973985,10.6703129L4.79973985,13.070313500000001C4.79973985,13.3648653,4.56095835,13.603647200000001,4.26640655,13.603646300000001L2.13307325,13.603646300000001L2.13307325,10.1369791Z" fill="#FFFFFF" fill-opacity="1"/><path d="M7.99973965,1.3359375C11.77627325,1.3359375,14.87067325,4.3927374,14.93227325,8.1551375L14.93307325,8.2692704L14.93307325,11.4692705C14.93435825,11.7569575,14.70724325,11.9938165,14.41975625,12.0046115C14.13227025,12.0154055,13.88803225,11.7962435,13.86773925,11.5092705L13.86640625,11.4692705L13.86640625,8.2692704C13.86640625,5.0439372,11.22507325,2.4026037000000002,7.99973965,2.4026037000000002C4.806673050000001,2.4026042,2.1858729500000003,4.9911375,2.13387285,8.1727376L2.13307295,8.2692704L2.13307295,11.4692705C2.13436095,11.7569585,1.90724444,11.9938215,1.6197559799999999,12.0046155C1.33226764,12.0154105,1.088028789,11.7962455,1.0677396059,11.5092705L1.06640625,11.4692705L1.06640625,8.2692704C1.06640625,4.4546041,4.18507285,1.3359375,7.99973965,1.3359375Z" fill="#FFFFFF" fill-opacity="1"/><path d="M10.66609192,4.53125C10.77329159,4.53125,10.87302494,4.562716484,10.95649147,4.617116451L10.98635769,4.63818312C12.0623579,5.44591665,12.655158,6.720583400000001,12.6844912,8.1629834L12.6855574,8.2715163L11.618890799999999,8.2720494C11.6180906,7.141382699999999,11.1940908,6.1683164,10.41942406,5.548316L10.34582424,5.49098253C10.162366867,5.35315084,10.087635994,5.1134238199999995,10.160272598,4.89575911C10.23290825,4.67809439,10.43662739,4.531288146973,10.66609192,4.53125Z" fill="#00B386" fill-opacity="1" style="mix-blend-mode:passthrough"/></g></svg>